<svg width="52" height="52" viewBox="0 0 52 52" fill="none" xmlns="http://www.w3.org/2000/svg">
<rect width="52" height="52" fill="white"/>
<path d="M39 34.125C39 37.8806 37.6819 41.0764 35.0458 43.7125C32.4097 46.3486 29.2138 47.6667 25.4583 47.6667C21.7027 47.6667 18.5069 46.3486 15.8708 43.7125C13.2347 41.0764 11.9166 37.8806 11.9166 34.125V14.0833C11.9166 11.375 12.8645 9.07292 14.7604 7.17709C16.6562 5.28125 18.9583 4.33334 21.6666 4.33334C24.375 4.33334 26.677 5.28125 28.5729 7.17709C30.4687 9.07292 31.4166 11.375 31.4166 14.0833V33.0417C31.4166 34.7028 30.8388 36.1111 29.6833 37.2667C28.5277 38.4222 27.1194 39 25.4583 39C23.7972 39 22.3888 38.4222 21.2333 37.2667C20.0777 36.1111 19.5 34.7028 19.5 33.0417V13H23.8333V33.0417C23.8333 33.5111 23.9868 33.8993 24.2937 34.2063C24.6007 34.5132 24.9888 34.6667 25.4583 34.6667C25.9277 34.6667 26.3159 34.5132 26.6229 34.2063C26.9298 33.8993 27.0833 33.5111 27.0833 33.0417V14.0833C27.0472 12.5667 26.5145 11.2847 25.4854 10.2375C24.4562 9.19028 23.1833 8.66667 21.6666 8.66667C20.15 8.66667 18.868 9.19028 17.8208 10.2375C16.7736 11.2847 16.25 12.5667 16.25 14.0833V34.125C16.2138 36.6889 17.0986 38.8646 18.9041 40.6521C20.7097 42.4396 22.8944 43.3333 25.4583 43.3333C27.9861 43.3333 30.1347 42.4396 31.9041 40.6521C33.6736 38.8646 34.5944 36.6889 34.6666 34.125V13H39V34.125Z" fill="black"/>
</svg>
