<svg width="25" height="18" viewBox="0 0 25 18" fill="none" xmlns="http://www.w3.org/2000/svg">
<path d="M2.5 17.5C1.8125 17.5 1.22396 17.2552 0.734375 16.7656C0.244792 16.276 0 15.6875 0 15V2.5C0 1.8125 0.244792 1.22396 0.734375 0.734375C1.22396 0.244792 1.8125 0 2.5 0H22.5C23.1875 0 23.776 0.244792 24.2656 0.734375C24.7552 1.22396 25 1.8125 25 2.5V15C25 15.6875 24.7552 16.276 24.2656 16.7656C23.776 17.2552 23.1875 17.5 22.5 17.5H2.5ZM2.5 15H22.5V2.5H2.5V15ZM7.5 13.75H17.5V11.25H7.5V13.75ZM3.75 10H6.25V7.5H3.75V10ZM7.5 10H10V7.5H7.5V10ZM11.25 10H13.75V7.5H11.25V10ZM15 10H17.5V7.5H15V10ZM18.75 10H21.25V7.5H18.75V10ZM3.75 6.25H6.25V3.75H3.75V6.25ZM7.5 6.25H10V3.75H7.5V6.25ZM11.25 6.25H13.75V3.75H11.25V6.25ZM15 6.25H17.5V3.75H15V6.25ZM18.75 6.25H21.25V3.75H18.75V6.25Z" fill="black"/>
</svg>
