<svg width="25" height="27" viewBox="0 0 25 27" fill="none" xmlns="http://www.w3.org/2000/svg">
<path d="M7.5 26.875V19.9688C5.39583 19.8021 3.61979 18.9479 2.17188 17.4062C0.723958 15.8646 0 14.0208 0 11.875C0 9.60417 0.786458 7.68229 2.35938 6.10938C3.93229 4.53646 5.85417 3.75 8.125 3.75H8.96875L7 1.75L8.75 0L13.75 5L8.75 10L7 8.25L8.96875 6.25H8.125C6.5625 6.25 5.23438 6.79688 4.14062 7.89062C3.04688 8.98438 2.5 10.3125 2.5 11.875C2.5 13.4375 3.04688 14.7656 4.14062 15.8594C5.23438 16.9531 6.5625 17.5 8.125 17.5H10V20.8438L13.3438 17.5H16.875C18.4375 17.5 19.7656 16.9531 20.8594 15.8594C21.9531 14.7656 22.5 13.4375 22.5 11.875C22.5 10.3125 21.9531 8.98438 20.8594 7.89062C19.7656 6.79688 18.4375 6.25 16.875 6.25H16.25V3.75H16.875C19.1458 3.75 21.0677 4.53646 22.6406 6.10938C24.2135 7.68229 25 9.60417 25 11.875C25 14.1458 24.2135 16.0677 22.6406 17.6406C21.0677 19.2135 19.1458 20 16.875 20H14.375L7.5 26.875Z" fill="black"/>
</svg>
